<svg width="1924" height="1154" viewBox="0 0 1924 1154" fill="none" xmlns="http://www.w3.org/2000/svg">
<g clip-path="url(#clip0_395_1018)" filter="url(#filter0_d_395_1018)">
<path d="M845 211.764C1201.38 211.764 1602 109.556 1602 566.5C1602 1023.44 1201.38 921.236 845 921.236V211.764Z" fill="#DFE2C6"/>
<path d="M1767.43 251.999L1810.36 308.885L1881.87 285.636L1836.89 344.042L1879.82 400.928L1809.09 380.139L1764.11 438.546L1765.38 367.291L1694.65 346.503L1766.16 323.254L1767.43 251.999Z" fill="#DEE0D3"/>
<path d="M-11.571 294.999L31.3571 351.885L102.87 328.636L57.8881 387.042L100.816 443.928L30.0878 423.139L-14.8941 481.546L-13.6248 410.291L-84.3532 389.503L-12.8403 366.254L-11.571 294.999Z" fill="#DEE0D3"/>
<path d="M1675.83 794.812L1667.57 833.83L1703.65 855.49L1662.47 857.944L1654.21 896.962L1637.02 859.461L1595.83 861.915L1626.39 836.284L1609.19 798.783L1645.27 820.443L1675.83 794.812Z" fill="#DEE0D3"/>
<path d="M113.827 887.812L105.571 926.83L141.65 948.49L100.468 950.944L92.2115 989.962L75.016 952.461L33.8339 954.915L64.3885 929.284L47.1929 891.783L83.2723 913.443L113.827 887.812Z" fill="#DEE0D3"/>
<rect x="343" y="164" width="480" height="855" fill="#DFE2C6"/>
<path d="M822.163 298.931C756.658 239.141 671.17 205.995 582.481 206C493.792 206.005 408.308 239.16 342.81 298.958L345.206 301.583C410.05 242.384 494.679 209.56 582.481 209.555C670.283 209.55 754.916 242.365 819.766 301.556L822.163 298.931Z" fill="#8E9361"/>
<path d="M822.163 824.07C756.658 883.86 671.17 917.006 582.481 917.001C493.792 916.996 408.308 883.841 342.81 824.043L345.206 821.418C410.05 880.617 494.679 913.441 582.481 913.446C670.283 913.451 754.916 880.636 819.766 821.445L822.163 824.07Z" fill="#8E9361"/>
<path d="M846.214 802.003C906.063 736.353 939.165 650.674 938.999 561.838C938.834 473.002 905.414 387.447 845.321 322.02L842.703 324.425C902.195 389.198 935.281 473.897 935.444 561.845C935.608 649.793 902.838 734.615 843.586 799.608L846.214 802.003Z" fill="#8E9361"/>
<path d="M320.784 322.996C260.935 388.645 227.833 474.324 227.999 563.16C228.164 651.996 261.584 737.551 321.677 802.978L324.295 800.573C264.803 735.801 231.717 651.101 231.554 563.154C231.39 475.206 264.16 390.384 323.412 325.391L320.784 322.996Z" fill="#8E9361"/>
</g>
<defs>
<filter id="filter0_d_395_1018" x="0" y="0" width="1928" height="1162" filterUnits="userSpaceOnUse" color-interpolation-filters="sRGB">
<feFlood flood-opacity="0" result="BackgroundImageFix"/>
<feColorMatrix in="SourceAlpha" type="matrix" values="0 0 0 0 0 0 0 0 0 0 0 0 0 0 0 0 0 0 127 0" result="hardAlpha"/>
<feOffset dy="4"/>
<feGaussianBlur stdDeviation="2"/>
<feComposite in2="hardAlpha" operator="out"/>
<feColorMatrix type="matrix" values="0 0 0 0 0 0 0 0 0 0 0 0 0 0 0 0 0 0 0.25 0"/>
<feBlend mode="normal" in2="BackgroundImageFix" result="effect1_dropShadow_395_1018"/>
<feBlend mode="normal" in="SourceGraphic" in2="effect1_dropShadow_395_1018" result="shape"/>
</filter>
<clipPath id="clip0_395_1018">
<rect width="1920" height="1154" fill="white" transform="translate(4)"/>
</clipPath>
</defs>
</svg>
