<svg width="1924" height="863" viewBox="0 0 1924 863" fill="none" xmlns="http://www.w3.org/2000/svg">
<g clip-path="url(#clip0_395_1018)" filter="url(#filter0_d_395_1018)">
<path d="M845 47.7642C1201.38 47.7642 1602 -54.4436 1602 402.5C1602 859.443 1201.38 757.236 845 757.236V47.7642Z" fill="#DFE2C6"/>
<path d="M1767.43 87.9994L1810.36 144.885L1881.87 121.636L1836.89 180.042L1879.82 236.928L1809.09 216.139L1764.11 274.546L1765.38 203.291L1694.65 182.503L1766.16 159.254L1767.43 87.9994Z" fill="#DEE0D3"/>
<path d="M-11.571 130.999L31.3571 187.885L102.87 164.636L57.8881 223.042L100.816 279.928L30.0878 259.139L-14.8941 317.546L-13.6248 246.291L-84.3532 225.503L-12.8403 202.254L-11.571 130.999Z" fill="#DEE0D3"/>
<path d="M1675.83 630.812L1667.57 669.83L1703.65 691.49L1662.47 693.944L1654.21 732.962L1637.02 695.461L1595.83 697.915L1626.39 672.284L1609.19 634.783L1645.27 656.443L1675.83 630.812Z" fill="#DEE0D3"/>
<path d="M113.827 723.812L105.571 762.83L141.65 784.49L100.468 786.944L92.2115 825.962L75.016 788.461L33.8339 790.915L64.3885 765.284L47.1929 727.783L83.2723 749.443L113.827 723.812Z" fill="#DEE0D3"/>
<rect x="343" width="480" height="855" fill="#DFE2C6"/>
<path d="M822.163 134.931C756.658 75.1409 671.17 41.9951 582.481 42C493.792 42.0049 408.308 75.1604 342.81 134.958L345.206 137.583C410.05 78.3837 494.679 45.5599 582.481 45.555C670.283 45.5501 754.916 78.3645 819.766 137.556L822.163 134.931Z" fill="#8E9361"/>
<path d="M822.163 660.07C756.658 719.86 671.17 753.006 582.481 753.001C493.792 752.996 408.308 719.841 342.81 660.043L345.206 657.418C410.05 716.617 494.679 749.441 582.481 749.446C670.283 749.451 754.916 716.636 819.766 657.445L822.163 660.07Z" fill="#8E9361"/>
<path d="M846.214 638.003C906.063 572.353 939.165 486.674 938.999 397.838C938.834 309.002 905.414 223.447 845.321 158.02L842.703 160.425C902.195 225.198 935.281 309.897 935.444 397.845C935.608 485.793 902.838 570.615 843.586 635.608L846.214 638.003Z" fill="#8E9361"/>
<path d="M320.784 158.996C260.935 224.645 227.833 310.324 227.999 399.16C228.164 487.996 261.584 573.551 321.677 638.978L324.295 636.573C264.803 571.801 231.717 487.101 231.554 399.154C231.39 311.206 264.16 226.384 323.412 161.391L320.784 158.996Z" fill="#8E9361"/>
</g>
<defs>
<filter id="filter0_d_395_1018" x="0" y="0" width="1928" height="863" filterUnits="userSpaceOnUse" color-interpolation-filters="sRGB">
<feFlood flood-opacity="0" result="BackgroundImageFix"/>
<feColorMatrix in="SourceAlpha" type="matrix" values="0 0 0 0 0 0 0 0 0 0 0 0 0 0 0 0 0 0 127 0" result="hardAlpha"/>
<feOffset dy="4"/>
<feGaussianBlur stdDeviation="2"/>
<feComposite in2="hardAlpha" operator="out"/>
<feColorMatrix type="matrix" values="0 0 0 0 0 0 0 0 0 0 0 0 0 0 0 0 0 0 0.25 0"/>
<feBlend mode="normal" in2="BackgroundImageFix" result="effect1_dropShadow_395_1018"/>
<feBlend mode="normal" in="SourceGraphic" in2="effect1_dropShadow_395_1018" result="shape"/>
</filter>
<clipPath id="clip0_395_1018">
<rect width="1920" height="855" fill="white" transform="translate(4)"/>
</clipPath>
</defs>
</svg>
