<svg width="1920" height="1154" viewBox="0 0 1920 1154" fill="none" xmlns="http://www.w3.org/2000/svg">
<g clip-path="url(#clip0_375_362)">
<path d="M841 211.764C1197.38 211.764 1598 109.556 1598 566.5C1598 1023.44 1197.38 921.236 841 921.236V211.764Z" fill="#16373B"/>
<path d="M1763.43 251.999L1806.36 308.885L1877.87 285.636L1832.89 344.042L1875.82 400.928L1805.09 380.139L1760.11 438.546L1761.38 367.291L1690.65 346.503L1762.16 323.254L1763.43 251.999Z" fill="#81A6AB"/>
<path d="M-15.571 294.999L27.3571 351.885L98.87 328.636L53.8881 387.042L96.8162 443.928L26.0878 423.139L-18.8941 481.546L-17.6248 410.291L-88.3532 389.503L-16.8403 366.254L-15.571 294.999Z" fill="#81A6AB"/>
<path d="M1671.83 794.812L1663.57 833.83L1699.65 855.49L1658.47 857.944L1650.21 896.962L1633.02 859.461L1591.83 861.915L1622.39 836.284L1605.19 798.783L1641.27 820.443L1671.83 794.812Z" fill="#81A6AB"/>
<path d="M109.827 887.812L101.571 926.83L137.65 948.49L96.4679 950.944L88.2115 989.962L71.016 952.461L29.8339 954.915L60.3885 929.284L43.1929 891.783L79.2723 913.443L109.827 887.812Z" fill="#81A6AB"/>
<rect x="339" y="164" width="480" height="855" fill="#16373B"/>
</g>
<defs>
<clipPath id="clip0_375_362">
<rect width="1920" height="1154" fill="white"/>
</clipPath>
</defs>
</svg>
