<svg width="430" height="1042" viewBox="0 0 430 1042" fill="none" xmlns="http://www.w3.org/2000/svg">
<g clip-path="url(#clip0_428_362)">
<g clip-path="url(#clip1_428_362)">
<path d="M-60 488C263.423 488 627 526.023 627 765C627 1003.98 263.423 1042 -60 1042V488Z" fill="#DFE2C6"/>
</g>
<g filter="url(#filter0_d_428_362)">
<rect width="350" height="551" transform="translate(37)" fill="#DFE2C6"/>
<path d="M349.527 92.3273C311.938 58.0175 262.882 38.9972 211.989 39C161.096 39.0028 112.041 58.0287 74.456 92.3426L75.8314 93.8492C113.041 59.8784 161.605 41.0428 211.989 41.04C262.373 41.0372 310.939 59.8674 348.152 93.834L349.527 92.3273Z" fill="#8E9361"/>
<path d="M349.527 393.673C311.938 427.982 262.882 447.003 211.989 447C161.096 446.997 112.041 427.971 74.456 393.657L75.8314 392.151C113.041 426.122 161.605 444.957 211.989 444.96C262.373 444.963 310.939 426.133 348.152 392.166L349.527 393.673Z" fill="#8E9361"/>
<path d="M362.756 380.436C397.1 342.764 416.094 293.598 416 242.621C415.905 191.643 396.727 142.548 362.243 105.004L360.741 106.384C394.88 143.553 413.866 192.157 413.96 242.624C414.054 293.092 395.249 341.766 361.248 379.062L362.756 380.436Z" fill="#8E9361"/>
<path d="M61.2444 105.564C26.9004 143.236 7.90556 192.402 8.00035 243.379C8.09514 294.357 27.2727 343.452 61.7566 380.996L63.259 379.616C29.12 342.447 10.1342 293.843 10.0403 243.376C9.9465 192.908 28.7514 144.234 62.752 106.938L61.2444 105.564Z" fill="#8E9361"/>
</g>
</g>
<defs>
<filter id="filter0_d_428_362" x="-8" y="-4" width="428" height="571" filterUnits="userSpaceOnUse" color-interpolation-filters="sRGB">
<feFlood flood-opacity="0" result="BackgroundImageFix"/>
<feColorMatrix in="SourceAlpha" type="matrix" values="0 0 0 0 0 0 0 0 0 0 0 0 0 0 0 0 0 0 127 0" result="hardAlpha"/>
<feOffset dx="-6" dy="6"/>
<feGaussianBlur stdDeviation="5"/>
<feComposite in2="hardAlpha" operator="out"/>
<feColorMatrix type="matrix" values="0 0 0 0 0 0 0 0 0 0 0 0 0 0 0 0 0 0 0.06 0"/>
<feBlend mode="normal" in2="BackgroundImageFix" result="effect1_dropShadow_428_362"/>
<feBlend mode="normal" in="SourceGraphic" in2="effect1_dropShadow_428_362" result="shape"/>
</filter>
<clipPath id="clip0_428_362">
<rect width="430" height="1042" fill="white"/>
</clipPath>
<clipPath id="clip1_428_362">
<rect width="687" height="554" fill="white" transform="translate(-60 488)"/>
</clipPath>
</defs>
</svg>
